<?xml version="1.0" encoding="utf-8" ?>
<svg xmlns="http://www.w3.org/2000/svg" xmlns:xlink="http://www.w3.org/1999/xlink" width="1024" height="1024">
	<path fill="#1B103A" d="M0 0L1024 0L1024 1024L0 1024L0 0Z"/>
	<defs>
		<linearGradient id="gradient_0" gradientUnits="userSpaceOnUse" x1="248.12459" y1="392.3725" x2="571.04913" y2="634.3985">
			<stop offset="0" stop-color="#FF5F92"/>
			<stop offset="1" stop-color="#A068C1"/>
		</linearGradient>
	</defs>
	<path fill="url(#gradient_0)" d="M422.132 323.223C415.121 318.334 409.964 311.571 408.326 303.046C406.832 295.273 408.147 286.661 412.727 280.123C417.605 273.158 425.913 268.131 434.313 266.88C442.399 265.676 451.113 267.699 457.634 272.699C464.124 277.675 468.449 285.787 469.404 293.874Q469.492 294.684 469.54 295.497Q469.588 296.31 469.596 297.125Q469.604 297.94 469.572 298.754Q469.54 299.568 469.468 300.379Q469.396 301.191 469.284 301.998Q469.172 302.805 469.02 303.605Q468.868 304.406 468.677 305.198Q468.487 305.99 468.257 306.772Q468.027 307.553 467.76 308.323Q467.492 309.092 467.186 309.848Q466.881 310.603 466.539 311.342Q466.197 312.082 465.819 312.803Q465.441 313.525 465.027 314.227Q464.614 314.929 464.167 315.61Q463.72 316.291 463.239 316.949Q462.759 317.607 462.247 318.241C457.296 324.334 450.29 327.913 442.522 328.684C440.319 328.902 438.069 328.985 435.854 328.973C430.433 342.492 423.956 355.701 417.914 368.958C412.849 380.071 408.142 391.468 402.798 402.435C409.871 406.778 415.02 412.132 416.987 420.496C418.55 427.143 418.047 434.469 414.373 440.335L413.51 441.685C419.176 445.685 424.474 450.312 429.851 454.696C443.945 466.185 457.708 478.056 471.708 489.657C477.859 494.753 483.958 500.199 490.41 504.892C498.47 499.628 505.879 496.469 515.776 498.567Q516.511 498.722 517.238 498.913Q517.965 499.104 518.682 499.331Q519.398 499.558 520.103 499.82Q520.807 500.083 521.498 500.38Q522.188 500.676 522.863 501.007Q523.538 501.338 524.196 501.702Q524.854 502.065 525.493 502.461Q526.131 502.857 526.75 503.285Q527.368 503.712 527.965 504.169Q528.562 504.626 529.135 505.113Q529.708 505.599 530.256 506.113Q530.804 506.627 531.327 507.168Q531.849 507.708 532.343 508.274Q532.838 508.84 533.304 509.43Q533.77 510.02 534.206 510.632Q534.643 511.244 535.048 511.877Q535.445 512.488 535.811 513.118Q536.177 513.748 536.51 514.396Q536.844 515.044 537.145 515.708Q537.445 516.372 537.712 517.05Q537.979 517.728 538.211 518.418Q538.444 519.109 538.641 519.81Q538.838 520.512 539 521.222Q539.162 521.933 539.288 522.651Q539.414 523.368 539.503 524.092Q539.593 524.815 539.646 525.541Q539.699 526.268 539.715 526.997Q539.732 527.725 539.711 528.454Q539.691 529.182 539.634 529.908Q539.577 530.635 539.484 531.358Q539.391 532.08 539.261 532.797Q539.131 533.514 538.966 534.224Q538.801 534.96 538.6 535.686Q538.399 536.412 538.162 537.128Q537.926 537.844 537.654 538.547Q537.382 539.25 537.076 539.939Q536.77 540.628 536.431 541.301Q536.091 541.974 535.718 542.629Q535.346 543.284 534.941 543.92Q534.537 544.557 534.102 545.172Q533.666 545.787 533.201 546.38Q532.736 546.974 532.242 547.543Q531.748 548.113 531.227 548.657Q530.705 549.201 530.158 549.719Q529.61 550.237 529.038 550.728Q528.465 551.218 527.869 551.679Q527.273 552.141 526.655 552.572Q526.037 553.004 525.398 553.404C522.345 555.281 519.057 556.613 515.592 557.519L515.634 641.216C523.857 643.701 530.588 648.397 534.665 656.139C538.43 663.29 539.476 671.508 536.994 679.276Q536.757 680.005 536.484 680.722Q536.211 681.439 535.903 682.142Q535.596 682.844 535.254 683.531Q534.912 684.217 534.537 684.886Q534.162 685.555 533.755 686.205Q533.347 686.855 532.908 687.484Q532.469 688.113 532 688.72Q531.531 689.326 531.033 689.909Q530.534 690.492 530.008 691.05Q529.481 691.608 528.928 692.139Q528.375 692.671 527.797 693.174Q527.218 693.677 526.615 694.152Q526.013 694.626 525.388 695.071Q524.762 695.515 524.116 695.928Q523.47 696.341 522.804 696.722Q522.139 697.103 521.455 697.451Q520.818 697.776 520.165 698.07Q519.512 698.363 518.846 698.624Q518.179 698.884 517.5 699.111Q516.822 699.338 516.132 699.531Q515.443 699.724 514.745 699.882Q514.047 700.041 513.342 700.164Q512.637 700.288 511.927 700.376Q511.217 700.464 510.503 700.517Q509.79 700.569 509.074 700.587Q508.359 700.604 507.643 700.585Q506.928 700.567 506.214 700.512Q505.5 700.458 504.79 700.369Q504.08 700.279 503.376 700.154Q502.671 700.029 501.973 699.87Q501.276 699.71 500.587 699.516Q499.898 699.321 499.22 699.093Q496.441 698.152 493.857 696.76Q491.274 695.369 488.959 693.566C472.336 709.45 452.828 722.916 436.968 739.295C440.439 747.254 441.629 755.06 438.496 763.394Q438.232 764.094 437.933 764.78Q437.634 765.467 437.301 766.137Q436.968 766.807 436.601 767.46Q436.235 768.112 435.836 768.746Q435.437 769.379 435.007 769.992Q434.577 770.604 434.117 771.194Q433.656 771.785 433.167 772.351Q432.678 772.917 432.16 773.458Q431.643 773.999 431.099 774.513Q430.555 775.028 429.987 775.514Q429.418 776 428.825 776.457Q428.232 776.914 427.617 777.341Q427.002 777.768 426.367 778.163Q425.731 778.558 425.077 778.921Q424.422 779.284 423.75 779.613Q423.078 779.943 422.39 780.238C414.669 783.486 405.282 783.421 397.575 780.161Q396.935 779.895 396.309 779.597Q395.682 779.299 395.072 778.97Q394.461 778.641 393.868 778.282Q393.275 777.923 392.7 777.534Q392.125 777.146 391.571 776.73Q391.016 776.313 390.483 775.87Q389.95 775.426 389.44 774.957Q388.929 774.487 388.443 773.992Q387.957 773.498 387.496 772.98Q387.035 772.462 386.601 771.921Q386.166 771.38 385.759 770.819Q385.353 770.257 384.974 769.676Q384.596 769.095 384.247 768.496Q383.898 767.896 383.58 767.28Q383.261 766.664 382.974 766.033Q382.686 765.402 382.431 764.757C379.37 757.2 379.302 748.064 382.66 740.614Q383.191 739.442 383.798 738.308C373.549 728.225 362.715 718.944 351.826 709.571C345.403 704.043 339.047 698.135 332.206 693.141C326.179 697.687 319.307 699.233 311.849 698.24C304.121 697.211 296.926 693.438 292.26 687.087Q291.807 686.461 291.384 685.814Q290.962 685.167 290.572 684.499Q290.182 683.832 289.824 683.147Q289.467 682.461 289.144 681.76Q288.821 681.057 288.532 680.341Q288.243 679.624 287.99 678.893Q287.737 678.163 287.519 677.422Q287.302 676.68 287.121 675.929Q286.94 675.177 286.796 674.418Q286.652 673.659 286.545 672.893Q286.438 672.128 286.369 671.358Q286.3 670.588 286.268 669.816Q286.237 669.044 286.243 668.271Q286.249 667.498 286.293 666.726Q286.336 665.955 286.418 665.186Q286.499 664.418 286.618 663.654Q286.722 662.986 286.861 662.324Q286.999 661.662 287.17 661.008Q287.342 660.354 287.546 659.709Q287.751 659.065 287.988 658.431Q288.224 657.798 288.493 657.177Q288.762 656.557 289.061 655.951Q289.361 655.345 289.691 654.754Q290.021 654.164 290.381 653.592Q290.74 653.019 291.128 652.465Q291.516 651.911 291.932 651.378Q292.347 650.844 292.789 650.333Q293.232 649.821 293.699 649.333Q294.166 648.844 294.658 648.38Q295.15 647.915 295.664 647.477Q296.179 647.038 296.715 646.626Q297.251 646.214 297.807 645.829C299.331 644.787 300.875 643.905 302.557 643.149C297.32 626.265 291.767 609.477 286.771 592.52L240.559 592.553C233.787 592.572 226.493 593.407 219.793 592.582C217.952 592.355 216.211 591.962 214.876 590.582C213.353 589.008 212.739 586.753 212.903 584.603C213.071 582.402 214.073 580.143 215.804 578.729C216.504 578.157 217.328 577.758 218.228 577.623C224.522 576.675 232.039 577.348 238.463 577.356L282.94 577.458C277.024 561.31 271.427 543.435 267.094 526.811C256.097 535.212 244.815 543.104 233.672 551.291C227.849 555.569 221.5 561.422 215.091 564.673C213.817 565.319 212.269 565.557 210.863 565.315C208.772 564.955 206.96 563.579 205.849 561.798C204.857 560.207 204.393 558.17 204.86 556.328C205.381 554.267 206.956 552.855 208.477 551.485C214.339 546.205 221.33 541.77 227.741 537.175L262.547 512.162C261.052 507.295 259.668 502.473 258.776 497.45C248.846 497.526 240.183 495.841 232.829 488.603C226.879 482.746 223.991 475.048 224.027 466.75C224.062 458.657 227.2 450.666 233.012 444.975C238.662 439.441 246.836 435.8 254.791 436.093C258.398 436.226 261.52 437.238 264.855 438.478C268.035 432.537 270.64 426.342 273.602 420.295C280.163 406.903 286.833 393.45 293.704 380.216C288.316 376.359 283.993 370.863 282.558 364.266C282.511 364.054 282.498 363.836 282.468 363.621C280.793 357.525 281.496 351.088 283.775 345.249C286.763 337.593 292.111 331.525 299.675 328.178C305.548 324.565 314.335 324.215 320.912 325.836C328.692 327.755 335.28 332.95 339.38 339.784C343.717 347.012 344.787 356.119 342.685 364.249Q342.496 364.985 342.269 365.71Q342.043 366.436 341.78 367.149Q341.518 367.862 341.219 368.561Q340.92 369.26 340.587 369.942Q340.253 370.625 339.885 371.29Q339.518 371.955 339.117 372.601Q338.715 373.246 338.282 373.87Q337.849 374.495 337.385 375.096Q336.92 375.698 336.426 376.275Q335.932 376.852 335.409 377.404Q334.886 377.955 334.336 378.479Q333.786 379.004 333.21 379.499Q332.633 379.995 332.033 380.461Q331.433 380.927 330.809 381.362Q330.186 381.796 329.542 382.199Q328.897 382.602 328.233 382.971C321.557 386.761 314.573 387.457 307.044 386.947C302.125 398.518 295.872 409.522 290.075 420.668C285.728 429.027 282.066 438.469 276.054 445.779C282.01 452.806 285.199 460.464 284.477 469.777C283.724 479.481 279.014 485.318 271.922 491.343C273.902 495.072 275.159 498.691 276.348 502.73C287.105 494.064 298.675 486.378 309.711 478.066Q325.312 466.262 341.161 454.791C348.011 449.791 354.825 444.524 362.075 440.118C358.552 432.582 357.994 425.011 360.864 417.193C363.489 410.042 368.895 404.507 375.777 401.365C380.058 399.411 384.534 398.575 389.218 398.38C392.324 388.813 397.104 379.698 401.267 370.549C408.397 354.876 415.546 339.131 422.132 323.223Z"/>
	<path fill="#FE648A" d="M282.468 363.621C280.793 357.525 281.496 351.088 283.775 345.249C286.763 337.593 292.111 331.525 299.675 328.178C299.552 328.386 299.436 328.598 299.307 328.802C297.82 331.157 294.04 332.48 292.039 334.588C286.936 339.964 283.728 348.85 282.816 356.1C282.501 358.602 282.76 361.126 282.468 363.621Z"/>
	<path fill="#1B103A" d="M371.184 451.943C371.492 452.026 372.492 452.688 372.663 452.794C375.069 454.285 376.949 455.264 379.743 455.922C388.532 457.993 396.409 456.87 404.123 452.145Q443.332 483.466 481.658 515.862C480.975 517.299 480.37 518.743 479.895 520.264C477.368 528.35 478.042 538.064 482.199 545.509C486.321 552.891 492.805 556.009 500.544 558.307L500.193 641.583C498.178 642.269 496.141 643.045 494.207 643.936C487.505 647.026 482.512 652.808 480.058 659.71C477.61 666.596 477.52 675.137 480.684 681.777C473.601 687.328 466.917 693.545 460.074 699.4Q443.657 713.184 427.481 727.249C424.787 725.358 421.887 723.853 418.718 722.933C409.335 720.21 401.892 722.924 393.733 727.331C387.62 721.175 380.985 715.443 374.571 709.595C364.102 700.053 353.736 690.542 342.282 682.175C343.175 679.918 343.912 677.624 344.334 675.23C345.903 666.338 343.681 658.028 338.574 650.693C332.373 643.896 325.385 641.071 316.374 640.05C315.518 634.792 313.803 629.557 312.364 624.427Q308.035 608.485 302.694 592.854C323.323 593.067 343.991 592.469 364.63 592.527C365.1 594.671 365.583 596.941 366.356 598.994C369.096 606.268 374.946 612.039 381.973 615.232C389.086 618.463 396.48 618.506 403.715 615.744C411.396 612.812 418.388 606.744 421.594 599.087C424.597 591.915 424.45 583.485 421.546 576.32C418.614 569.089 413.229 563.183 405.916 560.215C398.034 557.015 388.608 557.327 380.882 560.857C373.498 564.232 369.146 569.928 366.312 577.305C356.921 576.766 347.375 577.068 337.967 577.096Q317.851 577.022 297.741 577.498C292.627 557.295 285.335 537.618 280.557 517.351C311.131 496.038 340.762 473.454 371.184 451.943Z"/>
	<path fill="#BE60B1" d="M614.115 205.691C628.947 204.001 644.642 210.296 656.318 219.003C656.521 224.971 656.176 231.935 658.502 237.515C661.001 243.508 665.994 245.98 671.688 248.183Q678.477 319.474 687.126 390.563C688.406 400.556 688.417 415.172 691.362 424.285C694.056 432.619 700.461 436.801 707.833 440.515C700.635 454.903 681.724 474.746 668.997 484.911C662.937 489.75 655.976 493.508 650.776 499.348C640.604 510.77 635.732 527.134 634.18 542.061C632.677 556.52 633.926 570.921 635.115 585.347L639.635 634.465L646.45 720.606Q649.257 753.175 651.251 785.803C637.31 793.121 621.792 798.65 606.886 803.658Q597.308 806.544 587.601 808.963C589.578 766.631 593.413 724.351 596.743 682.111L600.715 624.506L603.879 579.804C604.732 566.1 605.691 552.393 603.928 538.713C601.744 521.767 595.678 504.727 583.215 492.627C579.176 488.705 574.479 485.431 570.039 481.978C540.272 458.82 523.19 425.109 518.676 387.982C512.689 338.742 530.162 278.675 560.98 239.869C574.687 222.609 591.639 208.347 614.115 205.691Z"/>
	<defs>
		<linearGradient id="gradient_1" gradientUnits="userSpaceOnUse" x1="254.75401" y1="282.24176" x2="755.89679" y2="753.23785">
			<stop offset="0" stop-color="#FC5E8C"/>
			<stop offset="1" stop-color="#8D6FCA"/>
		</linearGradient>
	</defs>
	<path fill="url(#gradient_1)" d="M200.784 657.416C193.456 643.091 188.298 627.799 183.653 612.443Q182.695 609.319 181.796 606.177Q180.897 603.036 180.058 599.877Q179.218 596.719 178.439 593.546Q177.659 590.372 176.94 587.185Q176.221 583.997 175.562 580.796Q174.904 577.596 174.306 574.383Q173.708 571.17 173.171 567.947Q172.634 564.724 172.158 561.491Q171.682 558.258 171.267 555.016Q170.853 551.775 170.5 548.526Q170.146 545.278 169.855 542.023Q169.563 538.768 169.333 535.509Q169.103 532.249 168.935 528.986Q168.767 525.722 168.661 522.456Q168.554 519.19 168.51 515.923Q168.465 512.655 168.483 509.387Q168.5 506.12 168.579 502.853Q168.658 499.586 168.8 496.321Q168.941 493.057 169.143 489.795Q169.346 486.534 169.611 483.277Q169.875 480.02 170.202 476.768Q170.528 473.517 170.915 470.272Q171.303 467.027 171.752 463.791Q172.201 460.554 172.711 457.326Q173.222 454.098 173.793 450.881Q174.364 447.664 174.996 444.458Q175.628 441.251 176.321 438.058Q177.013 434.864 177.766 431.685Q178.519 428.505 179.332 425.34Q180.145 422.175 181.018 419.026Q181.891 415.877 182.823 412.745Q183.756 409.613 184.747 406.499Q186.025 402.473 187.402 398.48Q188.778 394.486 190.253 390.528Q191.727 386.57 193.298 382.649Q194.869 378.728 196.537 374.847Q198.204 370.966 199.966 367.127Q201.728 363.288 203.584 359.494Q205.44 355.699 207.388 351.952Q209.337 348.204 211.377 344.505Q213.417 340.807 215.548 337.16Q217.678 333.512 219.898 329.918Q222.118 326.325 224.425 322.786Q226.732 319.248 229.126 315.768Q231.519 312.288 233.998 308.867Q236.476 305.447 239.038 302.088Q241.599 298.73 244.243 295.435Q246.886 292.141 249.61 288.912Q252.334 285.684 255.136 282.523Q257.939 279.362 260.818 276.272Q263.697 273.181 266.651 270.162Q269.605 267.143 272.633 264.198Q275.66 261.252 278.76 258.382Q281.859 255.512 285.027 252.719Q288.196 249.926 291.433 247.212Q294.669 244.497 297.971 241.863Q301.273 239.23 304.639 236.678Q308.005 234.126 311.433 231.657Q314.861 229.189 318.348 226.806Q321.835 224.422 325.38 222.125Q328.925 219.828 332.525 217.619Q336.126 215.41 339.779 213.29Q343.433 211.171 347.137 209.141Q350.842 207.112 354.595 205.174Q358.451 203.217 362.353 201.356Q366.256 199.494 370.204 197.731Q374.152 195.967 378.142 194.302Q382.133 192.636 386.163 191.07Q390.194 189.505 394.262 188.039Q398.33 186.574 402.433 185.21Q406.536 183.846 410.672 182.584Q414.808 181.322 418.973 180.163Q423.139 179.004 427.332 177.949Q431.526 176.893 435.744 175.942Q439.962 174.991 444.202 174.145Q448.442 173.299 452.702 172.559Q456.962 171.818 461.24 171.183Q465.517 170.548 469.808 170.02Q474.1 169.491 478.403 169.069Q482.706 168.648 487.019 168.332Q491.331 168.017 495.65 167.809Q499.969 167.601 504.292 167.501Q508.615 167.4 512.939 167.406Q517.263 167.412 521.585 167.526Q525.907 167.64 530.226 167.86Q534.544 168.081 538.856 168.409Q543.167 168.737 547.469 169.171Q551.771 169.606 556.061 170.147Q560.351 170.688 564.626 171.336Q568.901 171.983 573.159 172.737Q577.417 173.49 581.655 174.348Q585.893 175.207 590.108 176.17Q594.323 177.134 598.513 178.201Q602.703 179.269 606.866 180.44Q611.028 181.612 615.16 182.886Q619.292 184.16 623.391 185.536C630.136 187.729 651.298 195.168 655.325 198.765L655.433 200.003L654.741 200.801C634.278 191.992 613.707 187.432 592.159 196.292C590.177 197.107 588.234 198.03 586.298 198.948C572.124 196.553 557.891 193.977 543.556 192.795C464.995 186.315 388.629 205.216 324.132 251.104Q320.955 253.397 317.835 255.766Q314.715 258.136 311.654 260.581Q308.592 263.026 305.591 265.545Q302.591 268.064 299.652 270.655Q296.714 273.247 293.839 275.909Q290.965 278.571 288.156 281.303Q285.348 284.034 282.607 286.834Q279.866 289.633 277.194 292.498Q274.521 295.364 271.92 298.293Q269.319 301.223 266.79 304.215Q264.261 307.207 261.805 310.26Q259.35 313.313 256.97 316.425Q254.59 319.537 252.286 322.707Q249.983 325.876 247.757 329.1Q245.531 332.324 243.385 335.602Q241.239 338.88 239.173 342.209Q237.108 345.538 235.124 348.917Q233.14 352.295 231.239 355.721Q229.338 359.147 227.522 362.618Q225.705 366.089 223.973 369.604Q222.242 373.118 220.597 376.674Q218.951 380.23 217.393 383.824Q215.835 387.419 214.366 391.051Q212.896 394.683 211.515 398.349Q210.134 402.016 208.843 405.715Q207.552 409.414 206.352 413.143Q205.151 416.873 204.042 420.63Q202.933 424.388 201.916 428.171Q200.899 431.955 199.974 435.762Q199.05 439.569 198.218 443.398Q197.387 447.227 196.649 451.075Q195.912 454.922 195.268 458.787C191.93 478.685 190.878 499.259 191.33 519.409C192.567 574.58 204.021 614.672 228.383 663.828C231.456 667.416 236.699 678.592 239.564 683.342C243.389 689.682 248.132 695.692 252.517 701.666C284.753 745.583 325.974 778.52 374.98 801.943Q378.555 803.618 382.17 805.205Q385.784 806.792 389.437 808.29Q393.089 809.788 396.777 811.197Q400.465 812.605 404.186 813.923Q407.908 815.241 411.66 816.468Q415.412 817.694 419.194 818.829Q422.975 819.964 426.783 821.005Q430.59 822.047 434.423 822.996Q438.255 823.944 442.109 824.799Q445.963 825.654 449.837 826.414Q453.711 827.174 457.602 827.839Q461.493 828.505 465.4 829.075Q469.306 829.645 473.225 830.119Q477.144 830.594 481.074 830.972Q485.004 831.351 488.941 831.633Q492.879 831.915 496.822 832.101Q500.766 832.287 504.712 832.377Q508.659 832.467 512.607 832.46Q516.555 832.453 520.501 832.35Q524.447 832.247 528.39 832.047Q532.333 831.848 536.27 831.552Q540.206 831.256 544.134 830.864Q548.063 830.472 551.98 829.984Q555.898 829.496 559.802 828.913Q563.707 828.329 567.596 827.651Q571.484 826.972 575.356 826.198Q579.227 825.425 583.078 824.557Q586.929 823.689 590.758 822.728Q594.587 821.766 598.391 820.711Q602.195 819.656 605.973 818.508Q609.75 817.361 613.498 816.121Q617.246 814.882 620.963 813.551Q632.903 809.176 644.466 803.885Q656.029 798.594 667.145 792.42C727.615 759.304 772.226 710.52 801.783 648.31C838.761 570.478 840.113 478.846 811.353 398.33Q812.018 398.618 812.687 398.895C817.255 400.775 822.589 402.506 827.377 400.326C831.341 398.521 832.996 395.047 834.401 391.16C839.378 409.25 844.673 426.814 848.067 445.331C860.603 513.73 853.796 586.882 825.705 650.761Q824.007 654.654 822.213 658.504Q820.418 662.354 818.528 666.157Q816.638 669.961 814.653 673.716Q812.668 677.471 810.589 681.175Q808.511 684.879 806.341 688.53Q804.17 692.181 801.909 695.777Q799.648 699.372 797.297 702.91Q794.947 706.448 792.509 709.926Q790.071 713.404 787.546 716.819Q785.021 720.235 782.412 723.586Q779.803 726.938 777.111 730.223Q774.418 733.508 771.645 736.725Q768.871 739.941 766.018 743.088Q763.164 746.234 760.233 749.308Q757.302 752.382 754.295 755.381Q751.287 758.381 748.206 761.304Q745.125 764.227 741.971 767.072Q738.817 769.918 735.594 772.683Q732.37 775.448 729.078 778.132Q725.786 780.816 722.428 783.417Q719.069 786.017 715.647 788.533Q712.225 791.049 708.741 793.478Q705.257 795.907 701.713 798.248Q698.169 800.59 694.568 802.841Q690.966 805.093 687.31 807.254Q683.653 809.415 679.944 811.484Q676.234 813.553 672.474 815.528Q668.714 817.503 664.905 819.384Q661.097 821.264 657.243 823.049Q653.388 824.833 649.491 826.521Q645.593 828.209 641.654 829.798Q637.715 831.388 633.738 832.878Q629.758 834.381 625.742 835.785Q621.727 837.189 617.678 838.495Q613.629 839.8 609.549 841.005Q605.469 842.211 601.361 843.316Q597.253 844.421 593.119 845.424Q588.985 846.428 584.827 847.329Q580.67 848.231 576.491 849.03Q572.313 849.829 568.116 850.526Q563.919 851.222 559.706 851.815Q555.494 852.408 551.268 852.897Q547.042 853.386 542.805 853.771Q538.569 854.157 534.324 854.438Q530.079 854.719 525.828 854.896Q521.578 855.072 517.324 855.144Q513.071 855.216 508.817 855.184Q504.563 855.152 500.311 855.015Q496.059 854.878 491.811 854.637Q487.564 854.395 483.324 854.049Q479.084 853.704 474.854 853.254Q470.623 852.804 466.405 852.251Q462.187 851.697 457.984 851.04Q453.781 850.383 449.595 849.623Q445.41 848.863 441.244 848Q437.078 847.138 432.935 846.173Q428.792 845.208 424.673 844.142Q420.555 843.075 416.464 841.908Q412.373 840.741 408.312 839.473Q404.251 838.206 400.222 836.839Q396.194 835.472 392.2 834.007Q388.206 832.542 384.25 830.978Q380.293 829.415 376.376 827.755Q372.459 826.096 368.584 824.34Q365.689 823.021 362.818 821.648Q359.948 820.276 357.104 818.849Q354.26 817.423 351.443 815.944Q348.626 814.465 345.837 812.934Q343.048 811.403 340.289 809.819Q337.529 808.236 334.799 806.602Q332.07 804.968 329.371 803.282Q326.672 801.597 324.005 799.862Q321.339 798.127 318.705 796.342Q316.071 794.557 313.471 792.724Q310.871 790.89 308.305 789.008Q305.74 787.126 303.21 785.197Q300.68 783.268 298.187 781.291Q295.693 779.315 293.237 777.292Q290.781 775.27 288.364 773.202Q285.946 771.134 283.567 769.021Q281.188 766.908 278.849 764.751Q276.511 762.594 274.212 760.394Q271.914 758.194 269.658 755.951Q267.401 753.708 265.186 751.423Q262.972 749.139 260.801 746.814Q258.629 744.488 256.502 742.122Q254.374 739.757 252.291 737.352Q250.208 734.947 248.17 732.504Q246.133 730.06 244.141 727.579Q242.149 725.098 240.204 722.58Q238.259 720.062 236.361 717.509Q234.464 714.955 232.614 712.366Q230.764 709.778 228.963 707.155Q227.162 704.532 225.411 701.876Q223.659 699.22 221.957 696.532Q220.255 693.844 218.604 691.124C212.029 680.224 205.348 669.354 200.784 657.416Z"/>
	<path fill="#BE60B1" d="M719.898 327.464C730.339 327.879 741.041 328.924 751.429 330.07C751.895 344.3 754.261 358.567 755.153 372.798Q740.737 371.844 726.427 369.859C727.859 382.834 728.751 395.909 729.759 408.923L729.618 409.111C727.841 409.871 703.868 407.798 699.923 407.566Q697.833 386.75 696.143 365.898C705.46 366.476 714.781 367.368 724.099 368.014C721.929 354.853 720.732 340.765 719.898 327.464Z"/>
	<path fill="#BE60B1" d="M760.448 295.837C767.087 295.735 773.668 296.447 780.259 297.131Q781.227 312.863 783.612 328.443C792.382 329.089 801.163 330.183 809.909 331.101C811.715 345.169 812.63 359.457 814.135 373.577C803.885 373.396 793.184 371.844 782.955 370.901C781.605 356.777 779.892 342.709 778.993 328.546Q771.353 328.127 763.722 327.56C763.061 316.988 761.582 306.374 760.448 295.837Z"/>
	<path fill="#BE60B1" d="M665.898 186.392C675.531 186.495 685.871 187.871 695.367 189.503C696.653 202.768 697.071 216.113 698.608 229.354L708.532 230.625C709.558 240.575 710.223 250.601 711.057 260.571C704.236 260.347 697.41 259.44 690.627 258.722Q689.194 244.414 688.588 230.048Q679.166 229.063 669.715 228.415C668.9 214.388 666.668 200.443 665.898 186.392Z"/>
	<path fill="#BE60B1" d="M754.95 221.449C764.974 221.595 775.509 223.167 785.46 224.451C785.83 238.401 788.005 252.567 788.949 266.536C779.019 266.431 768.921 264.741 758.999 263.953Q756.74 242.723 754.95 221.449Z"/>
	<path fill="#BE60B1" d="M798.445 288.098Q808.223 288.895 817.984 289.877C818.61 300.506 819.821 311.095 820.923 321.682C814.474 321.348 808.053 320.521 801.638 319.804C800.508 309.266 799.157 298.669 798.445 288.098Z"/>
	<path fill="#BE60B1" d="M736.892 424.315C743.791 424.481 750.659 425.348 757.512 426.099L760.091 456.461C753.447 455.902 746.811 454.629 740.148 454.459L736.892 424.315Z"/>
	<path fill="#BE60B1" d="M722.844 262.428C729.315 262.66 735.849 263.489 742.296 264.101C742.651 274.381 744.043 284.817 745.037 295.063C738.579 294.308 732.064 293.822 725.589 293.211C725.06 282.979 723.945 272.616 722.844 262.428Z"/>
	<path fill="#BE60B1" d="M761.887 388.423C768.477 389.025 775.148 389.452 781.679 390.517C782.839 400.234 784.146 409.993 784.588 419.776Q774.784 418.94 764.996 417.931C763.848 408.117 762.975 398.249 761.887 388.423Z"/>
	<path fill="#BE60B1" d="M722.397 192.325C728.708 192.455 735.161 193.216 741.41 194.081C741.626 203.716 743.072 213.578 743.811 223.207C737.554 222.541 731.386 221.684 725.094 221.323C724.321 211.645 723.113 202.006 722.397 192.325Z"/>
	<path fill="#BE60B1" d="M687.353 286.371C693.676 286.599 700.025 287.584 706.29 288.431C706.609 297.841 708.461 307.209 709.156 316.61C702.82 316.174 696.481 315.398 690.162 314.747C689.611 305.268 688.266 295.822 687.353 286.371Z"/>
</svg>
