<?xml version="1.0" encoding="utf-8" ?>
<svg xmlns="http://www.w3.org/2000/svg" xmlns:xlink="http://www.w3.org/1999/xlink" width="1024" height="1024">
	<path fill="#1F0F30" d="M0 0L1024 0L1024 1024L0 1024L0 0Z"/>
	<defs>
		<linearGradient id="gradient_0" gradientUnits="userSpaceOnUse" x1="251.00615" y1="388.71497" x2="584.92914" y2="632.29382">
			<stop offset="0" stop-color="#FB6169"/>
			<stop offset="1" stop-color="#B570C1"/>
		</linearGradient>
	</defs>
	<path fill="url(#gradient_0)" d="M434.334 253.631C438.037 253.299 442.006 253.536 445.605 254.501C453.092 256.507 458.978 261.277 462.752 267.996Q463.152 268.705 463.517 269.433Q463.881 270.161 464.209 270.906Q464.537 271.651 464.827 272.411Q465.118 273.172 465.37 273.946Q465.622 274.72 465.836 275.505Q466.049 276.291 466.223 277.086Q466.397 277.882 466.531 278.684Q466.666 279.487 466.76 280.296Q466.854 281.105 466.908 281.917Q466.962 282.729 466.975 283.543Q466.989 284.357 466.962 285.171Q466.934 285.984 466.867 286.796Q466.799 287.607 466.692 288.414Q466.584 289.221 466.436 290.021Q466.288 290.822 466.101 291.614Q465.914 292.406 465.687 293.188C463.571 300.391 458.822 306.854 452.127 310.406C444.651 314.373 435.25 314.727 427.218 312.26C419.171 309.788 413.581 304.441 409.735 297.071C384.214 307.16 361.317 322.09 339.828 338.95C342.223 342.527 343.774 346.213 344.425 350.475C345.827 359.657 343.201 368.041 337.757 375.393C350.149 387.317 364.488 397.238 377.481 408.509C379.406 407.545 381.393 406.563 383.426 405.84Q384.107 405.606 384.797 405.404Q385.488 405.202 386.188 405.034Q386.888 404.865 387.594 404.73Q388.301 404.595 389.014 404.494Q389.726 404.393 390.443 404.326Q391.159 404.258 391.878 404.225Q392.597 404.192 393.317 404.194Q394.036 404.195 394.755 404.23Q395.474 404.266 396.19 404.335Q396.907 404.405 397.619 404.509Q398.331 404.612 399.037 404.75Q399.744 404.887 400.443 405.058Q401.142 405.229 401.832 405.433Q402.522 405.637 403.202 405.874Q403.882 406.11 404.549 406.379Q405.217 406.648 405.871 406.948C413.217 410.375 419.314 416.191 422.08 423.926C424.77 431.449 424.672 440.213 421.227 447.441C432.9 455.175 443.595 465.306 454.309 474.33C465.051 483.377 476.22 491.955 487.145 500.786Q488.764 500.184 490.447 499.796Q492.129 499.408 493.848 499.24Q495.567 499.073 497.293 499.129Q499.02 499.185 500.724 499.463Q501.457 499.577 502.184 499.728Q502.911 499.879 503.629 500.067Q504.347 500.254 505.054 500.478Q505.762 500.702 506.457 500.961Q507.153 501.22 507.834 501.514Q508.516 501.809 509.181 502.137Q509.847 502.465 510.495 502.826Q511.143 503.188 511.773 503.582Q512.402 503.975 513.01 504.4Q513.618 504.826 514.204 505.281Q514.79 505.736 515.353 506.221Q515.915 506.705 516.452 507.217Q516.989 507.73 517.5 508.268Q518.01 508.807 518.493 509.371Q518.975 509.935 519.428 510.523Q519.882 511.11 520.305 511.72C525.015 518.484 526.65 527.146 525.172 535.22C523.5 544.351 517.833 551.121 510.362 556.254C510.698 565.709 512.305 575.476 513.441 584.873C516.095 606.824 519.376 628.958 520.712 651.018C523.454 651.776 526.223 652.744 528.747 654.066Q529.391 654.398 530.017 654.762Q530.643 655.126 531.25 655.521Q531.857 655.917 532.443 656.342Q533.029 656.768 533.593 657.222Q534.156 657.677 534.696 658.16Q535.236 658.642 535.751 659.152Q536.266 659.661 536.754 660.196Q537.243 660.731 537.704 661.29Q538.164 661.848 538.596 662.43Q539.028 663.011 539.43 663.614Q539.832 664.217 540.202 664.839Q540.573 665.461 540.912 666.101Q541.251 666.741 541.557 667.398Q541.862 668.054 542.135 668.725Q542.407 669.397 542.645 670.081Q542.883 670.765 543.086 671.46Q543.299 672.19 543.476 672.93Q543.653 673.67 543.793 674.417Q543.933 675.165 544.036 675.919Q544.139 676.672 544.204 677.43Q544.269 678.188 544.296 678.948Q544.323 679.708 544.313 680.469Q544.302 681.23 544.254 681.989Q544.206 682.748 544.12 683.504Q544.034 684.259 543.911 685.01Q543.787 685.761 543.627 686.504Q543.466 687.248 543.269 687.982Q543.072 688.717 542.838 689.441Q542.605 690.165 542.335 690.876Q542.066 691.588 541.762 692.285Q541.458 692.982 541.119 693.663Q540.781 694.344 540.409 695.008C536.525 702.005 530.1 707.757 522.246 709.785C512.435 712.319 504.148 709.78 495.69 704.762C484.505 713.984 472.394 722.631 460.715 731.243L457.207 734.05C458.99 737.788 459.779 741.108 459.81 745.229C459.871 753.382 456.887 761.03 451.115 766.794Q450.607 767.301 450.075 767.783Q449.543 768.264 448.987 768.718Q448.431 769.172 447.854 769.598Q447.276 770.024 446.678 770.42Q446.08 770.816 445.462 771.182Q444.845 771.548 444.21 771.883Q443.576 772.218 442.925 772.521Q442.274 772.823 441.609 773.093Q440.944 773.363 440.267 773.599Q439.589 773.835 438.901 774.037Q438.212 774.239 437.514 774.407Q436.816 774.574 436.111 774.707Q435.406 774.839 434.695 774.936Q433.984 775.033 433.269 775.095Q432.554 775.156 431.837 775.182Q431.12 775.207 430.402 775.197C422.476 775.162 414.634 772.362 409.083 766.554C403.171 760.37 400.934 752.461 400.996 744.091C389.471 737.574 378.558 730.088 367.358 723.041C354.83 715.157 342.045 707.696 329.624 699.641C324.546 702.133 319.685 704.204 313.926 704.457C305.493 704.828 296.414 701.6 290.309 695.721C284.846 690.461 281.962 683.106 281.748 675.598C281.48 666.164 285.291 658.158 291.724 651.441C278.826 617.345 272.023 580.965 268.215 544.833Q265.71 544.388 263.309 543.546Q260.908 542.703 258.674 541.485Q258.013 541.126 257.37 540.734Q256.728 540.343 256.106 539.919Q255.484 539.495 254.884 539.041Q254.285 538.586 253.709 538.102Q253.133 537.617 252.582 537.104Q252.032 536.591 251.508 536.051Q250.984 535.511 250.488 534.945Q249.992 534.38 249.525 533.789Q249.058 533.199 248.622 532.586Q248.185 531.973 247.78 531.339Q247.375 530.705 247.003 530.051Q246.631 529.397 246.292 528.725Q245.953 528.053 245.649 527.365Q245.345 526.677 245.076 525.974Q244.806 525.271 244.573 524.556Q244.34 523.84 244.143 523.114C242.135 515.721 242.822 507.897 246.693 501.199C251.362 493.118 258.486 488.946 267.311 486.622C269.385 451.159 281.31 413.028 293.606 379.865C289.827 375.474 286.168 371.099 284.038 365.641C281.071 358.04 281.675 349.425 285.047 342.062Q285.357 341.383 285.702 340.72Q286.046 340.057 286.423 339.412Q286.801 338.767 287.21 338.142Q287.619 337.517 288.06 336.914Q288.5 336.311 288.97 335.73Q289.44 335.15 289.939 334.594Q290.438 334.037 290.964 333.507Q291.49 332.977 292.043 332.474Q292.595 331.971 293.172 331.497Q293.749 331.022 294.349 330.577Q294.949 330.133 295.571 329.719Q296.193 329.305 296.835 328.922Q297.476 328.54 298.137 328.191Q298.797 327.842 299.474 327.526Q300.151 327.211 300.843 326.93Q301.536 326.649 302.241 326.403C310.591 323.403 318.705 323.951 326.715 327.672C351.771 309.128 376.198 290.509 406.487 281.304C407.387 275.893 409.028 270.926 412.239 266.42C417.566 258.944 425.451 255.1 434.334 253.631Z"/>
	<path fill="#1F0F30" d="M411.582 459.088C419.045 464.264 425.985 470.983 433.073 476.73C446.754 487.823 460.768 498.657 474.087 510.177C468.382 516.928 466.143 522.705 465.94 531.574C455.28 534.493 444.893 538.601 434.441 542.183C416.032 548.492 397.493 554.704 379.417 561.916C373.449 554.867 366.943 550.256 357.518 549.344Q356.733 549.276 355.947 549.247Q355.16 549.219 354.372 549.23Q353.585 549.241 352.799 549.291Q352.013 549.342 351.231 549.432Q350.448 549.522 349.672 549.651Q348.895 549.781 348.126 549.949Q347.356 550.117 346.596 550.324Q345.836 550.531 345.088 550.775Q344.339 551.02 343.604 551.302Q342.869 551.584 342.149 551.903Q341.429 552.221 340.726 552.576Q340.022 552.93 339.338 553.32Q338.654 553.709 337.99 554.133Q337.326 554.556 336.684 555.012Q336.042 555.469 335.424 555.957Q334.806 556.445 334.213 556.963Q333.674 557.439 333.158 557.941Q332.643 558.443 332.153 558.97Q331.663 559.497 331.2 560.047Q330.737 560.597 330.301 561.17Q329.865 561.742 329.458 562.335Q329.051 562.929 328.674 563.541Q328.297 564.154 327.95 564.784Q327.604 565.415 327.289 566.061Q326.974 566.708 326.691 567.37Q326.408 568.031 326.158 568.706Q325.909 569.38 325.692 570.066Q325.476 570.753 325.294 571.448Q325.112 572.144 324.964 572.848Q324.816 573.552 324.703 574.263Q324.591 574.974 324.513 575.689Q324.435 576.404 324.393 577.122C323.844 585.435 325.738 593.138 331.383 599.513C336.874 605.715 344.318 609.23 352.565 609.7C361.066 610.184 369.23 607.571 375.54 601.764C383.118 594.789 384.539 586.278 384.875 576.419C412.657 565.335 441.527 556.927 469.421 546.142C470.641 547.625 471.867 549.11 473.192 550.503C479.249 556.865 485.712 559.306 494.387 559.514C495.883 572.182 496.807 584.918 498.323 597.589C499.7 615.559 502.788 633.413 504.125 651.415C497.455 654.934 491.025 659.146 487.283 665.916C482.806 674.014 482.591 682.98 485.213 691.684C479.435 695.514 474.233 699.992 468.804 704.283C461.845 709.784 454.795 715.157 447.874 720.709C442.025 717.189 435.865 715.206 428.99 715.678C419.617 716.32 412.529 720.983 406.48 727.855C394.922 720.541 383.136 713.568 371.551 706.286C360.825 699.544 350.419 692.487 339.239 686.499Q339.69 685.513 340.073 684.499Q340.456 683.485 340.77 682.447Q341.083 681.409 341.326 680.352Q341.569 679.296 341.74 678.225Q341.91 677.155 342.008 676.075Q342.106 674.995 342.131 673.911Q342.155 672.827 342.107 671.744Q342.058 670.661 341.936 669.584Q341.86 668.883 341.75 668.186Q341.639 667.49 341.495 666.799Q341.35 666.109 341.171 665.426Q340.993 664.744 340.781 664.071Q340.569 663.398 340.325 662.737Q340.08 662.075 339.803 661.427Q339.526 660.778 339.217 660.144Q338.908 659.51 338.569 658.891Q338.229 658.273 337.86 657.672Q337.49 657.071 337.092 656.49Q336.693 655.908 336.266 655.346Q335.839 654.785 335.385 654.245Q334.931 653.705 334.451 653.188Q333.971 652.672 333.466 652.179Q332.961 651.687 332.433 651.219Q331.904 650.752 331.353 650.312C323.806 644.4 315.572 643.554 306.421 644.644C303.483 632.118 299.058 619.897 295.801 607.442C290.4 586.785 286.906 565.208 284.921 543.962C290.157 541.819 294.695 539.076 298.4 534.716C304.903 527.063 305.163 517.564 304.396 508.082L372.98 459.443C377.103 463.948 383.886 466.189 389.845 466.604C398.299 467.193 405.253 464.652 411.582 459.088Z"/>
	<path fill="#1F0F30" d="M322.451 385.68C322.661 385.612 322.861 385.501 323.08 385.476C325.77 385.166 362.121 416.945 366.436 421.162C363.387 429.277 362.172 436.012 363.677 444.629C346.808 456.016 330.456 468.544 313.97 480.498Q304.554 486.873 295.318 493.507C291.236 489.657 286.892 488.15 281.615 486.74Q287.493 453.265 297.249 420.709C300.83 409.171 305.133 397.848 309.294 386.509C313.766 386.633 318.046 386.514 322.451 385.68Z"/>
	<defs>
		<linearGradient id="gradient_1" gradientUnits="userSpaceOnUse" x1="458.88547" y1="355.77682" x2="766.07886" y2="665.3468">
			<stop offset="0" stop-color="#DC768F"/>
			<stop offset="1" stop-color="#A66CC7"/>
		</linearGradient>
	</defs>
	<path fill="url(#gradient_1)" d="M612.249 226.208C612.581 226.179 612.912 226.144 613.244 226.122C633.876 224.747 657.569 239.564 672.683 252.771C679.009 258.3 684.312 264.973 689.183 271.791Q690.814 274.067 692.364 276.399Q693.915 278.731 695.382 281.115Q696.85 283.5 698.233 285.935Q699.616 288.369 700.913 290.851Q702.21 293.333 703.419 295.858Q704.628 298.384 705.748 300.95Q706.868 303.517 707.897 306.121Q708.926 308.725 709.864 311.363Q710.801 314.002 711.646 316.672Q712.49 319.342 713.24 322.039Q713.99 324.737 714.646 327.459Q715.301 330.182 715.86 332.926Q716.419 335.669 716.882 338.431Q717.345 341.192 717.711 343.969Q718.077 346.745 718.345 349.532Q718.614 352.319 718.784 355.114C721.728 396.991 709.9 441.899 681.163 473.377Q675.412 479.702 668.753 485.064C663.69 489.103 657.994 492.848 653.766 497.799C642.907 510.52 634.842 536.42 632.985 552.812C631.6 565.039 632.462 577.638 633.091 589.896Q634.213 611.254 635.655 632.593L647.057 785.604Q632.52 792.016 617.612 797.512C607.973 800.886 598.301 803.778 588.431 806.41C590.708 785.904 591.966 765.274 593.535 744.705Q597.112 701.75 600.075 658.748L603.76 605.526C604.6 593.093 605.838 580.451 605.384 567.989C604.884 554.268 602.339 539.784 597.628 526.855C590.674 507.776 578.311 494.621 565.242 479.691C539.864 450.697 524.545 416.52 521.499 377.978C518.227 336.572 531.323 288.275 558.586 256.498C572.342 240.465 590.707 227.865 612.249 226.208Z"/>
	<path fill="#1F0F30" d="M630.518 243.968C633.124 244.165 635.737 245.157 638.13 246.171C662.64 256.552 683.151 283.194 692.898 307.432C708.248 345.602 708.76 390.883 692.289 428.864C684.123 447.694 670.389 465.394 652.346 475.664C647.851 478.222 643.074 480.068 638.276 481.962C638.128 482.005 637.981 482.05 637.832 482.091C635.943 482.62 634.565 482.78 632.83 481.7C631.501 480.873 630.241 479.456 629.979 477.862C629.639 475.799 630.534 473.931 631.97 472.494C635.36 469.106 640.646 466.976 644.743 464.503C654.788 458.44 663.788 449.376 670.569 439.86C689.777 412.906 695.096 376.002 689.439 343.872C684.374 315.11 670.34 285.621 647.764 266.594C642.313 262 635.57 259.563 629.968 255.374C628.341 254.157 626.666 252.235 626.623 250.088C626.569 247.391 628.647 245.564 630.518 243.968Z"/>
	<defs>
		<linearGradient id="gradient_2" gradientUnits="userSpaceOnUse" x1="384.56195" y1="442.9119" x2="774.98016" y2="733.97614">
			<stop offset="0" stop-color="#D06A9F"/>
			<stop offset="1" stop-color="#A26DCA"/>
		</linearGradient>
	</defs>
	<path fill="url(#gradient_2)" d="M803.592 362.462L820.443 362.61Q827.982 377.823 834.086 393.666Q840.191 409.509 844.809 425.847Q845.637 428.922 846.406 432.012Q847.175 435.103 847.886 438.207Q848.597 441.311 849.249 444.428Q849.901 447.545 850.495 450.674Q851.088 453.803 851.622 456.942Q852.156 460.082 852.631 463.231Q853.106 466.38 853.521 469.537Q853.937 472.694 854.292 475.859Q854.648 479.023 854.944 482.194Q855.24 485.365 855.476 488.541Q855.712 491.717 855.888 494.896Q856.064 498.076 856.18 501.258Q856.296 504.441 856.352 507.625Q856.408 510.809 856.403 513.993Q856.399 517.178 856.335 520.362Q856.271 523.546 856.146 526.728Q856.022 529.91 855.838 533.089Q855.654 536.268 855.409 539.444Q855.165 542.619 854.861 545.789Q854.557 548.959 854.193 552.122Q853.829 555.286 853.406 558.442Q852.982 561.599 852.499 564.746Q852.016 567.894 851.474 571.032Q850.932 574.17 850.33 577.297Q849.729 580.425 849.068 583.54Q848.408 586.655 847.689 589.758Q846.97 592.86 846.193 595.948Q845.415 599.036 844.58 602.109Q843.744 605.182 842.851 608.239Q841.958 611.296 841.007 614.335Q840.056 617.374 839.048 620.395Q838.04 623.416 836.975 626.417Q835.583 630.401 834.094 634.35Q832.605 638.299 831.019 642.211Q829.433 646.122 827.751 649.993Q826.07 653.864 824.294 657.693Q822.517 661.521 820.647 665.305Q818.778 669.088 816.815 672.825Q814.853 676.562 812.799 680.249Q810.746 683.936 808.602 687.572Q806.459 691.207 804.226 694.789Q801.994 698.371 799.674 701.896Q797.354 705.422 794.948 708.89Q792.543 712.358 790.052 715.765Q787.562 719.172 784.989 722.518Q782.415 725.863 779.761 729.144Q777.106 732.425 774.371 735.64Q771.636 738.854 768.823 742.001Q766.01 745.147 763.121 748.223Q760.232 751.3 757.268 754.304Q754.303 757.309 751.266 760.239Q748.229 763.17 745.121 766.025Q742.012 768.88 738.835 771.657Q735.657 774.435 732.412 777.134Q729.168 779.833 725.857 782.451Q722.547 785.069 719.173 787.605Q715.8 790.141 712.365 792.593Q708.93 795.045 705.436 797.412Q701.941 799.78 698.39 802.06Q694.839 804.34 691.232 806.533Q687.626 808.725 683.966 810.828Q680.307 812.931 676.598 814.944Q672.888 816.956 669.13 818.877Q665.371 820.797 661.567 822.625Q657.672 824.493 653.732 826.263Q649.792 828.034 645.81 829.706Q641.827 831.378 637.804 832.951Q633.781 834.523 629.72 835.996Q625.659 837.468 621.563 838.84Q617.467 840.211 613.339 841.48Q609.21 842.749 605.051 843.916Q600.892 845.082 596.705 846.145Q592.518 847.207 588.307 848.166Q584.095 849.125 579.861 849.978Q575.626 850.832 571.372 851.581Q567.118 852.329 562.847 852.972Q558.575 853.614 554.289 854.151Q550.003 854.687 545.705 855.117Q541.407 855.547 537.1 855.87Q532.792 856.193 528.478 856.41Q524.164 856.626 519.846 856.735Q515.528 856.844 511.209 856.846Q506.889 856.848 502.571 856.742Q498.253 856.637 493.939 856.425Q489.624 856.212 485.317 855.893Q481.009 855.573 476.711 855.147Q472.412 854.721 468.126 854.188Q463.839 853.656 459.567 853.017Q455.295 852.378 451.04 851.633Q446.786 850.888 442.551 850.038Q438.316 849.188 434.103 848.233Q429.891 847.278 425.703 846.219Q421.515 845.16 417.355 843.997Q413.195 842.834 409.065 841.569Q404.935 840.303 400.838 838.936Q396.741 837.568 392.679 836.099C340.276 817.62 291.514 783.62 254.69 742.198C248.738 735.502 243.295 728.299 237.842 721.196C230.448 711.565 219.683 697.643 214.901 686.647C214.818 686.454 214.775 686.246 214.711 686.045C216.075 686.421 216.535 687.72 217.315 688.866L217.684 688.505C217.38 685.947 216.447 683.463 216.07 680.875C215.408 676.318 215.16 669.506 218.407 665.858C221.994 661.828 225.502 666.081 229.326 665.52C229.504 665.494 229.672 665.422 229.844 665.374C235.727 675.533 241.584 685.75 248.34 695.361Q250.154 697.945 252.018 700.493Q253.882 703.041 255.794 705.552Q257.707 708.064 259.669 710.537Q261.63 713.011 263.639 715.446Q265.648 717.881 267.704 720.277Q269.76 722.673 271.862 725.028Q273.964 727.384 276.111 729.698Q278.258 732.012 280.45 734.284Q282.642 736.556 284.878 738.785Q287.113 741.014 289.392 743.199Q291.67 745.384 293.99 747.524Q296.311 749.665 298.672 751.76Q301.034 753.855 303.436 755.904Q305.838 757.953 308.279 759.954Q310.72 761.956 313.199 763.91Q315.679 765.864 318.196 767.77Q320.713 769.675 323.266 771.531Q325.82 773.388 328.409 775.194Q330.998 777 333.622 778.756Q336.245 780.512 338.903 782.216Q341.56 783.921 344.25 785.573Q346.94 787.226 349.661 788.825Q352.383 790.425 355.135 791.972Q357.887 793.519 360.668 795.012Q363.45 796.505 366.26 797.944Q369.07 799.383 371.907 800.767Q374.744 802.151 377.608 803.479Q380.472 804.808 383.361 806.081Q386.25 807.353 389.163 808.57Q392.076 809.786 395.012 810.946Q397.949 812.105 400.907 813.208Q403.865 814.31 406.844 815.355C484.574 843.08 574.594 836.473 648.727 801.175Q652.311 799.472 655.852 797.682Q659.393 795.891 662.889 794.013Q666.385 792.136 669.833 790.173Q673.281 788.209 676.68 786.161Q680.079 784.114 683.426 781.982Q686.774 779.851 690.067 777.638Q693.361 775.425 696.599 773.131Q699.837 770.837 703.017 768.464Q706.197 766.091 709.318 763.641Q712.439 761.19 715.498 758.663Q718.557 756.136 721.553 753.534Q724.549 750.932 727.48 748.257Q730.411 745.582 733.275 742.835Q736.139 740.089 738.934 737.272Q741.729 734.456 744.454 731.571Q747.179 728.686 749.831 725.735Q752.484 722.784 755.063 719.769Q757.642 716.753 760.146 713.675Q762.65 710.596 765.077 707.457Q767.504 704.318 769.853 701.12Q772.202 697.921 774.471 694.666Q776.74 691.411 778.928 688.101Q781.116 684.79 783.222 681.427Q785.328 678.064 787.349 674.649Q789.371 671.235 791.309 667.772Q793.246 664.309 795.097 660.799Q796.948 657.289 798.711 653.735Q800.475 650.18 802.151 646.583Q803.826 642.986 805.412 639.349Q806.999 635.712 808.494 632.036Q809.99 628.361 811.395 624.65Q812.799 620.939 814.112 617.194Q817.199 608.225 819.717 599.081Q822.236 589.937 824.176 580.652Q826.117 571.368 827.472 561.981Q828.827 552.593 829.591 543.139C835.223 479.793 824.271 429.6 797.06 372.474Q797.574 372.337 798.082 372.178C800.271 371.483 803.259 369.909 804.082 367.578C804.591 366.134 804.305 363.786 803.592 362.462Z"/>
	<path fill="#EB6376" d="M214.711 686.045C211.29 681.578 208.611 675.765 206.045 670.736C196.196 651.435 187.836 631.637 181.827 610.793Q179.273 602.171 177.167 593.428Q175.061 584.686 173.409 575.846Q171.758 567.006 170.565 558.093Q169.372 549.18 168.641 540.217C163.413 474.159 177.814 403.549 209.991 345.494Q212.026 341.778 214.152 338.113Q216.277 334.448 218.492 330.836Q220.707 327.225 223.01 323.668Q225.312 320.112 227.701 316.613Q230.09 313.114 232.564 309.674Q235.039 306.235 237.596 302.857Q240.154 299.48 242.793 296.166Q245.433 292.852 248.153 289.603Q250.873 286.355 253.672 283.174Q256.47 279.993 259.346 276.882Q262.222 273.771 265.173 270.731Q268.124 267.691 271.149 264.725Q274.174 261.758 277.271 258.866Q280.367 255.975 283.534 253.16Q286.7 250.345 289.935 247.608Q293.169 244.872 296.47 242.216Q299.77 239.559 303.135 236.984Q306.5 234.41 309.926 231.918Q313.353 229.427 316.84 227.02Q320.327 224.613 323.871 222.292Q327.416 219.972 331.017 217.739Q334.617 215.506 338.271 213.361Q341.925 211.217 345.631 209.163Q349.336 207.109 353.091 205.146Q356.846 203.184 360.648 201.314Q364.449 199.443 368.296 197.667Q372.142 195.891 376.031 194.209Q379.92 192.527 383.848 190.942Q387.777 189.356 391.744 187.867Q395.71 186.378 399.712 184.986Q403.714 183.595 407.748 182.302Q411.783 181.009 415.848 179.815C510.893 152.698 603.875 167.917 689.545 215.751Q689.528 232.047 689.185 248.339C665.606 228.171 646.899 217.556 617.433 208.096Q613.569 206.817 609.675 205.634Q605.781 204.45 601.858 203.364Q597.936 202.277 593.988 201.288Q590.04 200.299 586.068 199.407Q582.097 198.516 578.105 197.723Q574.113 196.93 570.103 196.235Q566.092 195.541 562.066 194.947Q558.039 194.352 554 193.857Q549.96 193.362 545.909 192.966Q541.858 192.571 537.799 192.276Q533.739 191.982 529.674 191.787Q525.608 191.593 521.539 191.499Q517.47 191.405 513.4 191.411Q509.33 191.418 505.261 191.525Q501.193 191.633 497.128 191.84Q493.063 192.048 489.005 192.356Q484.946 192.665 480.897 193.073Q476.847 193.481 472.809 193.99Q468.771 194.498 464.747 195.106Q460.722 195.714 456.714 196.421Q452.706 197.128 448.716 197.935Q444.727 198.741 440.759 199.645Q436.79 200.55 432.845 201.552Q428.901 202.554 424.982 203.654Q421.063 204.753 417.173 205.949Q413.282 207.145 409.423 208.437Q405.563 209.728 401.736 211.115Q397.91 212.502 394.119 213.983Q390.328 215.464 386.574 217.038Q382.821 218.612 379.108 220.278Q375.394 221.945 371.723 223.702Q368.052 225.46 364.426 227.308Q357.427 230.97 350.62 234.976Q343.812 238.982 337.212 243.322Q330.612 247.661 324.237 252.324Q317.861 256.987 311.725 261.961C259.791 303.403 226.155 355.408 205.994 418.499C199.486 438.866 195.715 459.738 193.633 480.985C187.187 546.743 199.652 606.806 229.844 665.374C229.672 665.422 229.504 665.494 229.326 665.52C225.502 666.081 221.994 661.828 218.407 665.858C215.16 669.506 215.408 676.318 216.07 680.875C216.447 683.463 217.38 685.947 217.684 688.505L217.315 688.866C216.535 687.72 216.075 686.421 214.711 686.045Z"/>
	<path fill="#B76DBC" d="M786.226 516.534C789.093 516.373 791.67 516.278 794.445 517.227C797.279 518.197 799.518 520.127 800.687 522.909C807.311 538.682 788.868 597.614 782.205 614.269C779.839 620.183 776.585 630.505 771.903 634.785C770.365 636.19 768.154 636.976 766.26 637.79C763.591 638.145 761.308 638.034 758.771 637.039C755.421 635.724 752.732 633.153 751.419 629.786C748.339 621.883 755.098 611.905 758.02 604.649C764.692 588.086 769.069 570.863 772.197 553.31C773.453 546.257 774.639 528.924 777.089 523.441C778.808 519.594 782.554 517.979 786.226 516.534Z"/>
	<path fill="#B76DBC" d="M743.497 286.018L773.012 286.074L772.731 316.347Q758.366 316.21 744.005 315.807L744.106 334.998L744.05 344.393L730.73 344.371L724.96 315.84C731.181 315.276 737.575 315.365 743.821 315.328Q743.828 300.671 743.497 286.018Z"/>
	<path fill="#B76DBC" d="M732.067 373.549C736.049 373.511 740.039 373.588 744.022 373.61C743.981 381.717 744.707 391.691 743.971 399.536C743.886 400.444 743.782 400.855 744.227 401.691L744.777 401.326C745.178 400.475 745.637 399.715 746.149 398.926C753.415 397.902 766.009 398.804 773.847 398.829C773.832 408.674 774.513 418.676 773.803 428.494C763.987 428.573 754.156 428.12 744.335 428.07L744.504 403.105C739.119 402.927 733.79 402.083 728.482 401.216Q731.278 387.512 732.067 373.549Z"/>
	<path fill="#B76DBC" d="M713.641 462.36C714.325 463.022 714.303 463.718 714.337 464.64C714.549 470.324 714.16 476.137 714.112 481.832Q714.11 494.667 714.412 507.498L686.135 507.334C686.081 507.302 686.018 507.281 685.972 507.237C684.162 505.49 684.932 490.596 684.915 487.56C696.536 479.536 703.79 472.077 713.641 462.36Z"/>
	<path fill="#B76DBC" d="M775.922 458.027Q790.833 457.776 805.745 457.892Q805.639 473.14 805.87 488.386L775.685 488.609C775.498 478.421 775.773 468.215 775.922 458.027Z"/>
	<path fill="#B76DBC" d="M773.992 340.012Q788.78 339.985 803.567 340.2C803.481 347.616 803.297 355.049 803.592 362.462C804.305 363.786 804.591 366.134 804.082 367.578C803.259 369.909 800.271 371.483 798.082 372.178Q797.574 372.337 797.06 372.474C796.54 371.62 795.985 371.013 795.269 370.317C789.976 368.342 780.008 369.869 774.046 370.005Q774.117 355.008 773.992 340.012Z"/>
	<path fill="#B76DBC" d="M757.222 230.945L786.333 230.808L786.357 261.066Q771.66 261.042 756.964 261.256L757.222 230.945Z"/>
	<path fill="#B76DBC" d="M713.184 198.565L742.503 198.398Q742.788 213.204 742.566 228.012L712.967 228.085L713.184 198.565Z"/>
	<path fill="#B76DBC" d="M801.953 286.244C811.461 285.89 821.042 286.123 830.558 286.119C830.601 295.953 831.221 306.216 830.344 315.987Q815.926 315.921 801.511 316.216C801.453 310.229 800.288 290.605 801.953 286.244Z"/>
	<path fill="#B76DBC" d="M712.885 255.484L742.383 255.467Q742.285 270.226 742.495 284.983Q727.731 284.966 712.969 284.668L712.885 255.484Z"/>
	<path fill="#B76DBC" d="M721.42 428.197Q732.81 428.383 744.202 428.408C743.932 438.055 744.071 447.739 744.042 457.391L738.434 457.254C730.877 457.094 723.312 457.085 715.753 457.018C715.41 450.623 715.504 444.162 715.449 437.757L721.42 428.197Z"/>
</svg>
