<?xml version="1.0" encoding="utf-8" ?>
<svg xmlns="http://www.w3.org/2000/svg" xmlns:xlink="http://www.w3.org/1999/xlink" width="1024" height="1024">
	<path fill="#16143C" d="M0 0L1024 0L1024 1024L0 1024L0 0Z"/>
	<defs>
		<linearGradient id="gradient_0" gradientUnits="userSpaceOnUse" x1="287.14087" y1="345.28232" x2="564.24854" y2="590.28107">
			<stop offset="0" stop-color="#FF939A"/>
			<stop offset="1" stop-color="#B880F1"/>
		</linearGradient>
	</defs>
	<path fill="url(#gradient_0)" d="M570.465 205.348L570.96 206.033C559.943 213.399 548.502 219.708 537.291 226.695C513.363 241.61 488.615 260.112 460.671 266.102C466.089 271.191 469.249 277.191 469.531 284.788C469.863 293.718 466.483 302.947 460.367 309.475Q459.844 310.034 459.294 310.567Q458.745 311.1 458.169 311.604Q457.593 312.109 456.993 312.584Q456.393 313.06 455.77 313.505Q455.147 313.95 454.503 314.363Q453.859 314.777 453.195 315.157Q452.53 315.538 451.848 315.886Q451.166 316.233 450.468 316.546Q449.769 316.859 449.055 317.137Q448.342 317.415 447.616 317.657Q446.89 317.899 446.152 318.105Q445.415 318.31 444.668 318.479Q443.921 318.648 443.167 318.779Q442.413 318.91 441.653 319.004Q440.893 319.098 440.13 319.153Q439.366 319.209 438.601 319.227Q436.491 319.279 434.38 319.247C430.752 332.262 423.665 345.077 418.188 357.445L388.79 425.115C396.515 431.049 401.843 438.113 403.205 447.978C403.674 451.372 403.483 454.87 403.408 458.287L449.902 483.268C460.493 488.922 471.736 494.307 481.821 500.817C486.266 494.221 493.087 490.374 500.789 488.876C509.523 487.177 517.838 488.909 525.178 493.937C532.329 498.835 537.673 506.895 539.093 515.488C540.479 523.874 538.103 532.749 533.135 539.61C529.138 545.131 523.644 548.877 517.184 550.944C517.5 554.518 517.782 558.314 517.555 561.891C517.387 563.171 517.223 564.409 517.318 565.702C517.34 566 517.368 566.298 517.393 566.595L516.789 566.904L517.174 567.035L516.624 566.353L517.998 566.383L516.695 566.597C516.39 564.634 516.306 561.655 514.72 560.34L513.779 562.294C513.174 562.061 512.587 560.527 512.254 559.915L511.338 559.677Q510.737 560.659 510.095 561.614C508.962 561.693 508.528 561.64 507.556 561.043C507.562 559.753 507.647 560.375 507.321 559.176L506.548 559.669L505.724 559.245L504.452 560.224C504.016 559.648 504.206 559.978 503.903 559.115C503.402 557.693 502.996 556.339 502.078 555.118C501.875 554.848 501.66 554.585 501.451 554.319L501.31 553.122C497.218 550.803 492.738 550.056 488.898 547.123L450.614 575.157C441.398 581.953 431.807 588.716 423.179 596.256C426.611 603.298 426.693 613.468 424.123 620.807C421.456 628.423 416.092 634.298 408.818 637.796Q408.034 638.17 407.232 638.504Q406.43 638.839 405.613 639.133Q404.795 639.427 403.964 639.681Q403.134 639.935 402.291 640.147Q401.449 640.359 400.597 640.529Q399.745 640.7 398.886 640.828Q398.026 640.956 397.162 641.042Q396.297 641.127 395.43 641.17Q394.562 641.212 393.693 641.212Q392.824 641.212 391.957 641.168Q391.089 641.125 390.225 641.039Q389.36 640.953 388.501 640.825Q387.642 640.696 386.79 640.525Q385.938 640.354 385.096 640.141Q384.254 639.928 383.423 639.674Q382.592 639.42 381.775 639.125C377.779 637.657 374.385 635.481 371.16 632.713C364.131 639.375 356.039 644.835 347.774 649.838C350.484 658.167 350.663 667.133 346.68 675.131C345.275 677.951 343.45 680.434 341.285 682.72C370.644 711.177 384.742 721.585 421.35 740.192L423.147 742.076L423.082 742.891C421.723 743.645 420.694 743.875 420.178 745.477C419.301 748.202 420.669 751.975 419.27 754.464C418.46 754.782 417.758 755.011 416.896 755.138C382.781 740.172 354.604 718.892 329.059 692.037C322.249 693.676 316.015 694.634 309.096 692.919Q308.322 692.727 307.557 692.498Q306.793 692.268 306.041 692.002Q305.289 691.735 304.552 691.432Q303.814 691.129 303.091 690.79Q302.369 690.451 301.664 690.077Q300.96 689.703 300.274 689.294Q299.589 688.886 298.924 688.445Q298.259 688.003 297.617 687.53Q296.975 687.057 296.357 686.552Q295.739 686.048 295.146 685.514Q294.553 684.98 293.987 684.418Q293.421 683.855 292.884 683.266Q292.346 682.676 291.838 682.061Q291.33 681.446 290.853 680.806Q290.376 680.167 289.931 679.505Q289.485 678.843 289.073 678.16C284.522 670.581 282.777 660.842 285.128 652.24C287.099 645.03 291.71 638.612 298.172 634.806C284.035 609.375 275.762 580.032 269.549 551.776C264.448 551.415 259.731 550.146 255.333 547.512Q254.661 547.109 254.009 546.673Q253.357 546.237 252.728 545.769Q252.099 545.301 251.493 544.803Q250.888 544.305 250.308 543.777Q249.728 543.25 249.175 542.694Q248.621 542.139 248.096 541.556Q247.571 540.974 247.076 540.367Q246.58 539.759 246.115 539.128Q245.65 538.496 245.217 537.843Q244.784 537.189 244.383 536.515Q243.983 535.841 243.617 535.148Q243.25 534.455 242.918 533.745Q242.586 533.034 242.29 532.308Q241.994 531.582 241.734 530.843Q241.474 530.103 241.251 529.351Q241.028 528.6 240.842 527.838C238.724 519.185 239.92 509.79 244.691 502.213C249.542 494.51 257.298 489.604 266.106 487.677Q266.744 481.637 267.657 475.633Q268.569 469.628 269.754 463.672Q270.939 457.715 272.394 451.818Q273.849 445.922 275.571 440.097Q277.293 434.273 279.278 428.533Q281.263 422.794 283.508 417.15Q285.752 411.507 288.251 405.971Q290.75 400.436 293.499 395.02C296.304 389.457 299.251 382.878 303.388 378.227Q302.425 377.417 301.522 376.54Q300.619 375.663 299.78 374.723Q298.942 373.784 298.173 372.788Q297.404 371.791 296.708 370.742Q296.011 369.694 295.392 368.598Q294.772 367.502 294.232 366.365Q293.692 365.228 293.234 364.055Q292.777 362.882 292.404 361.68C289.847 353.403 291.026 343.989 295.152 336.408C299.298 328.79 306.663 323.106 314.977 320.721C324.094 318.106 332.498 319.774 340.664 324.272C352.396 314.362 363.307 303.975 375.784 294.891C384.969 288.205 397.275 281.586 405.437 274.693C411.001 269.995 412.947 263.635 419.9 259.769C429.875 254.222 439.289 253.791 450.113 256.692C471.267 243.512 504.496 238.051 528.126 229.11C543.126 223.434 556.927 213.802 570.465 205.348Z"/>
	<path fill="#16143C" d="M397.266 472.803C406.733 478.784 416.937 483.604 426.85 488.791L470.846 511.831C472.71 512.786 474.526 513.41 475.193 515.478C473.405 521.398 475.01 528.255 477.811 533.677L478.147 534.314C468.367 542.658 457.754 550.026 447.493 557.757C436.133 566.316 425.107 575.19 413.34 583.211Q412.217 582.422 411.025 581.743C403.038 577.145 392.369 576.162 383.544 578.634Q382.802 578.834 382.071 579.07Q381.339 579.307 380.621 579.579Q379.902 579.851 379.197 580.158Q378.493 580.466 377.805 580.807Q377.116 581.149 376.445 581.525Q375.775 581.9 375.123 582.308Q374.472 582.716 373.842 583.155Q373.211 583.595 372.603 584.065Q371.995 584.535 371.411 585.035Q370.827 585.535 370.269 586.063Q369.71 586.59 369.178 587.145Q368.646 587.7 368.143 588.28Q367.639 588.861 367.164 589.465Q366.69 590.07 366.246 590.697Q365.801 591.324 365.389 591.973Q364.976 592.621 364.596 593.289C359.746 601.94 359.327 611.453 362.034 620.854Q357.329 623.964 352.75 627.258C348.115 630.731 343.528 634.182 339.188 638.024Q338.574 637.339 337.923 636.69C330.521 629.364 321 628.883 311.253 628.957C299.762 601.708 290.676 580.044 285.609 550.536C293.251 547.28 299.39 542.252 303.292 534.798C308.195 525.435 307.301 515.614 304.235 505.863C319.239 496.906 334.842 487.26 348.554 476.481C348.716 476.63 348.877 476.781 349.041 476.928Q349.67 477.493 350.326 478.026Q350.983 478.558 351.665 479.057Q352.348 479.555 353.055 480.019Q353.762 480.482 354.492 480.909Q355.221 481.336 355.971 481.726Q356.721 482.116 357.491 482.467Q358.259 482.818 359.045 483.129Q359.831 483.441 360.632 483.713Q361.432 483.984 362.245 484.215Q363.059 484.446 363.883 484.635Q364.706 484.824 365.539 484.971Q366.371 485.119 367.21 485.224Q368.049 485.328 368.892 485.391Q369.735 485.453 370.58 485.473Q371.425 485.492 372.27 485.469Q373.115 485.446 373.958 485.38C383.957 484.681 390.857 480.294 397.266 472.803Z"/>
	<path fill="#16143C" d="M404.547 292.595C405.303 293.556 405.637 295.788 406.011 297.017C408.51 305.234 412.585 309.632 419.713 314.17C409.74 338.544 398.671 362.543 388.153 386.689C383.337 397.746 378.23 408.815 374.093 420.146C369.801 419.44 365.671 419.602 361.47 420.718C353.415 422.858 346.964 428.357 342.881 435.546C337.788 444.512 337.665 453.412 340.326 463.143C326.143 473.929 310.559 482.863 296.451 493.823C295.102 493.934 294.54 493.257 293.433 492.551C289.442 490.359 285.635 488.651 281.175 487.653C285.479 453.567 297.252 414.886 315.464 385.645C315.836 385.773 316.207 385.907 316.588 386.008C324.335 388.066 333.072 386.396 339.898 382.355C347.629 377.778 353.122 369.77 355.316 361.119C357.709 351.682 355.998 342.775 351.015 334.53C366.88 319.283 385.971 304.431 404.547 292.595Z"/>
	<defs>
		<linearGradient id="gradient_1" gradientUnits="userSpaceOnUse" x1="467.73398" y1="432.14886" x2="754.51837" y2="596.75854">
			<stop offset="0" stop-color="#D090DC"/>
			<stop offset="1" stop-color="#A778F5"/>
		</linearGradient>
	</defs>
	<path fill="url(#gradient_1)" d="M615.058 229.18C617.304 228.88 619.803 228.944 622.064 229.09C641.159 230.316 656.201 242.203 668.241 256.164C689.762 281.12 704.876 319.575 702.456 352.698C695.764 355.252 688.866 356.419 681.853 357.719Q685.752 370.113 689.296 382.613C692.691 381.553 696.135 380.712 699.586 379.856C702.403 396.388 705.77 402.924 703.71 420.412C701.313 414.586 699.428 408.561 697.446 402.585C689.978 404.242 682.542 406.66 675.143 408.652Q678.351 419.559 681.394 430.512Q691.711 427.701 702.072 425.059C690.443 450.166 679 454.317 661.559 471.987C647.964 485.76 637.365 501.443 632.969 520.488C628.449 540.071 631.375 560.461 632.41 580.315C634.535 621.106 638.206 661.578 641.981 702.245C644.113 725.226 647.555 749.547 647.614 772.528C646.648 783.639 643.144 794.901 636.765 804.119C633.174 809.308 628.37 813.838 621.891 814.823C617.516 815.489 613.386 814.164 609.859 811.577C598.294 803.092 593.032 784.39 591.918 770.814C590.979 759.368 593.41 747.43 594.801 736.064Q596.717 719.693 598.147 703.272Q602.69 654.375 605.823 605.368C607.189 584.558 608.593 563.635 609.044 542.783C609.662 514.235 599.246 491.282 579.072 471.185C571.375 463.517 562.926 456.657 555.813 448.408Q554.565 446.983 553.37 445.512Q552.175 444.042 551.035 442.528Q549.895 441.014 548.811 439.46Q547.728 437.905 546.703 436.312Q545.677 434.718 544.712 433.088Q543.746 431.458 542.841 429.793Q541.935 428.129 541.092 426.432Q540.249 424.735 539.469 423.008Q538.689 421.281 537.973 419.527Q537.257 417.772 536.607 415.992Q535.956 414.213 535.372 412.41Q534.787 410.608 534.269 408.785Q533.751 406.963 533.301 405.122Q532.851 403.281 532.469 401.426Q532.087 399.57 531.774 397.701Q531.46 395.832 531.216 393.953C525.018 349.476 539.22 297.321 566.287 261.571C578.908 244.901 593.798 232.07 615.058 229.18Z"/>
	<path fill="#16143C" d="M661.273 421.51L662.101 421.825C664.424 429.822 666.363 437.966 668.462 446.027Q656.99 448.963 645.683 452.483L644.63 452.349C641.92 448.602 639.458 433.823 638.225 428.514C646.018 426.501 653.623 423.995 661.273 421.51Z"/>
	<path fill="#16143C" d="M659.056 328.104C659.111 328.126 659.172 328.135 659.22 328.169C660.83 329.299 665.064 347.482 666.029 351.24C658.517 353.787 650.761 355.833 643.146 358.059C639.796 351.879 637.78 341.558 635.883 334.593Q647.442 331.25 659.056 328.104Z"/>
	<path fill="#16143C" d="M666.29 370.486L667.117 370.645C669.1 373.313 672.413 390.338 673.485 394.704C666.387 396.882 659.236 398.905 652.11 400.99L651.361 401.217C649.627 399.603 645.852 380.852 644.762 377.003C651.965 374.92 659.187 372.892 666.29 370.486Z"/>
	<path fill="#16143C" d="M653.486 256.776C659.477 259.787 665.15 268.224 669.155 273.625C681.001 289.599 689.936 308.912 694.044 328.339C695.009 332.903 696.027 338.055 695.344 342.721C694.321 343.067 692.602 343.638 691.504 343.508C688.033 343.098 687.566 336.389 687.001 333.578C681.368 305.579 670.008 280.004 653.486 256.776Z"/>
	<defs>
		<linearGradient id="gradient_2" gradientUnits="userSpaceOnUse" x1="231.60956" y1="318.03604" x2="776.29626" y2="725.15833">
			<stop offset="0" stop-color="#F98E96"/>
			<stop offset="1" stop-color="#A079FF"/>
		</linearGradient>
	</defs>
	<path fill="url(#gradient_2)" d="M259.898 739.643C246.854 727.144 234.047 708.343 224.521 693.013Q222.317 689.452 220.2 685.838Q218.083 682.224 216.055 678.56Q214.027 674.896 212.089 671.184Q210.151 667.471 208.304 663.713Q206.456 659.954 204.701 656.152Q202.946 652.349 201.284 648.505Q199.622 644.661 198.054 640.778Q196.487 636.894 195.014 632.974Q193.541 629.054 192.164 625.098Q190.787 621.143 189.507 617.156Q188.227 613.168 187.044 609.151Q185.862 605.133 184.777 601.088Q183.693 597.043 182.707 592.973Q181.721 588.902 180.835 584.809Q179.949 580.716 179.163 576.603Q178.377 572.489 177.691 568.358Q177.005 564.226 176.42 560.079Q175.835 555.933 175.352 551.773Q174.868 547.613 174.485 543.442Q174.103 539.272 173.823 535.093Q173.542 530.915 173.363 526.73Q173.184 522.546 173.108 518.359Q173.031 514.172 173.056 509.984Q173.081 505.796 173.209 501.61Q173.336 497.424 173.565 493.242Q173.794 489.061 174.125 484.886Q174.456 480.711 174.888 476.545Q175.321 472.38 175.855 468.226Q176.388 464.072 177.023 459.933Q177.658 455.793 178.394 451.67Q179.129 447.548 179.965 443.444Q180.801 439.34 181.736 435.258C184.373 424.084 187.115 412.853 190.719 401.949Q192.422 396.776 194.294 391.662Q196.167 386.547 198.206 381.497Q200.245 376.447 202.45 371.467Q204.654 366.487 207.021 361.582Q209.388 356.677 211.914 351.852Q214.441 347.028 217.125 342.289Q219.81 337.55 222.648 332.902Q225.486 328.254 228.476 323.702Q231.466 319.15 234.604 314.698Q237.742 310.247 241.024 305.901Q244.307 301.555 247.73 297.319Q251.154 293.084 254.715 288.963Q258.276 284.842 261.97 280.841Q265.665 276.84 269.489 272.962Q273.313 269.084 277.263 265.334Q281.212 261.584 285.283 257.966C301.524 243.819 319.43 231.489 337.733 220.184C396.035 184.171 470.8 168.466 538.727 174.891C561.141 177.011 582.796 181.827 604.649 187.001C592.923 192.594 582.032 199.269 570.96 206.033L570.465 205.348L579.863 199.523C522.817 184.487 454.877 189.791 399.68 209.85C381.179 216.574 363.144 225.677 346.15 235.57Q342.866 237.517 339.63 239.542Q336.394 241.568 333.208 243.672Q330.022 245.775 326.888 247.956Q323.754 250.136 320.673 252.392Q317.593 254.647 314.568 256.977Q311.544 259.306 308.576 261.709Q305.609 264.111 302.701 266.584Q299.793 269.058 296.945 271.601Q294.098 274.144 291.313 276.756Q288.528 279.368 285.807 282.046Q283.087 284.724 280.432 287.468Q277.777 290.211 275.189 293.018Q272.601 295.825 270.082 298.694Q267.564 301.563 265.115 304.492Q262.666 307.422 260.29 310.409Q257.913 313.397 255.609 316.442Q253.305 319.486 251.076 322.586Q248.847 325.685 246.693 328.837Q244.54 331.99 242.464 335.194Q240.387 338.398 238.389 341.651Q236.391 344.904 234.473 348.205Q232.554 351.506 230.716 354.852Q228.878 358.198 227.122 361.588Q225.365 364.978 223.692 368.409Q222.018 371.841 220.428 375.312Q218.838 378.783 217.333 382.291Q215.828 385.8 214.408 389.344Q212.988 392.888 211.655 396.465Q210.321 400.043 209.075 403.651Q207.829 407.26 206.67 410.898Q205.512 414.536 204.442 418.2Q203.372 421.865 202.391 425.555C179.985 510.958 190.335 599.455 235.22 675.978Q244.357 691.589 255.354 705.95C259.962 711.968 265.003 717.744 269.433 723.88C280.106 734.434 289.511 745.726 300.962 755.585Q303.633 757.903 306.355 760.16Q309.078 762.417 311.85 764.613Q314.622 766.809 317.442 768.942Q320.263 771.075 323.131 773.145Q325.998 775.214 328.912 777.219Q331.825 779.223 334.782 781.162Q337.74 783.101 340.74 784.973Q343.74 786.846 346.782 788.65Q349.823 790.455 352.904 792.191Q355.985 793.927 359.104 795.593Q362.223 797.26 365.379 798.856Q368.535 800.452 371.725 801.977Q374.916 803.502 378.14 804.956Q381.364 806.409 384.619 807.79Q387.875 809.171 391.161 810.478Q394.447 811.785 397.761 813.019Q401.075 814.253 404.417 815.411Q407.758 816.571 411.124 817.654Q414.49 818.738 417.88 819.746Q421.269 820.755 424.681 821.687Q428.092 822.619 431.523 823.474Q434.955 824.329 438.405 825.108Q441.854 825.886 445.32 826.587Q448.787 827.288 452.268 827.911Q455.749 828.534 459.243 829.079Q462.737 829.624 466.243 830.09Q469.748 830.557 473.263 830.945Q476.778 831.333 480.301 831.642Q483.824 831.951 487.353 832.181Q490.882 832.411 494.415 832.562Q497.948 832.713 501.484 832.785Q505.02 832.856 508.556 832.849C536.159 832.671 578.815 829.319 604.134 818.404C608.361 822.453 614.013 824.514 619.863 824.495C627.398 824.47 633.778 821.196 638.869 815.821C642.118 812.392 644.714 808.508 647.061 804.425C665.688 795.94 684.124 785.99 700.531 773.672C707.532 768.417 714.092 762.575 720.716 756.858C762.786 720.55 792.128 677.772 811.613 625.735C834.854 563.667 836.642 494.513 820.875 430.481C817.704 417.603 814.121 404.723 809.255 392.369Q818.203 389.658 827.27 387.38C834.455 409.081 840.852 430.995 844.702 453.565C856.802 524.497 847.102 601.36 814.616 665.854Q812.718 669.559 810.731 673.217Q808.744 676.874 806.669 680.483Q804.594 684.091 802.432 687.649Q800.27 691.206 798.022 694.709Q795.775 698.213 793.443 701.661Q791.111 705.11 788.696 708.5Q786.282 711.891 783.786 715.222Q781.289 718.553 778.713 721.823Q776.137 725.093 773.482 728.299Q770.828 731.506 768.096 734.647Q765.365 737.788 762.558 740.862Q759.751 743.936 756.87 746.941Q753.99 749.946 751.037 752.88Q748.085 755.814 745.062 758.676Q742.039 761.538 738.948 764.326Q735.857 767.114 732.699 769.826Q729.541 772.538 726.318 775.172Q723.095 777.807 719.81 780.363Q716.524 782.919 713.177 785.394Q709.831 787.87 706.425 790.263Q703.02 792.657 699.557 794.967Q696.094 797.278 692.577 799.504Q689.059 801.729 685.489 803.869Q681.918 806.009 678.297 808.062Q674.676 810.115 671.006 812.079Q667.336 814.043 663.619 815.918Q659.903 817.793 656.142 819.577Q652.381 821.361 648.578 823.054Q644.775 824.747 640.932 826.346Q637.089 827.946 633.208 829.453Q629.328 830.959 625.412 832.371Q621.496 833.782 617.547 835.099Q613.512 836.382 609.447 837.567Q605.382 838.751 601.289 839.836Q597.196 840.921 593.078 841.906Q588.96 842.891 584.82 843.774Q580.679 844.658 576.518 845.441Q572.356 846.224 568.177 846.904Q563.999 847.585 559.804 848.164Q555.61 848.743 551.403 849.219Q547.195 849.695 542.978 850.068Q538.76 850.442 534.535 850.712Q530.309 850.982 526.078 851.15Q521.848 851.317 517.614 851.381Q513.38 851.444 509.146 851.405Q504.913 851.365 500.681 851.223Q496.449 851.08 492.222 850.834Q487.995 850.588 483.776 850.239Q479.556 849.89 475.346 849.438Q471.136 848.986 466.938 848.432Q462.741 847.877 458.558 847.22Q454.375 846.564 450.209 845.805Q446.044 845.046 441.898 844.186Q437.752 843.326 433.629 842.365Q429.505 841.404 425.406 840.343Q421.307 839.282 417.235 838.121Q413.163 836.96 409.121 835.7Q405.079 834.439 401.069 833.081Q397.058 831.723 393.082 830.267Q389.106 828.811 385.167 827.259Q381.228 825.707 377.328 824.059Q373.427 822.411 369.568 820.668Q365.71 818.925 361.894 817.089Q358.079 815.253 354.31 813.324Q348.691 810.439 343.19 807.336Q337.689 804.233 332.313 800.917Q326.938 797.6 321.696 794.076Q316.455 790.552 311.356 786.825Q306.256 783.098 301.307 779.173Q296.358 775.249 291.566 771.134Q286.775 767.019 282.148 762.719Q277.522 758.42 273.067 753.942C268.706 749.581 263.329 744.691 259.898 739.643Z"/>
	<path fill="#B980EB" d="M501.451 554.319C501.66 554.585 501.875 554.848 502.078 555.118C502.996 556.339 503.402 557.693 503.903 559.115C504.206 559.978 504.016 559.648 504.452 560.224L505.724 559.245L506.548 559.669L507.321 559.176C507.647 560.375 507.562 559.753 507.556 561.043C508.528 561.64 508.962 561.693 510.095 561.614Q510.737 560.659 511.338 559.677L512.254 559.915C512.587 560.527 513.174 562.061 513.779 562.294L514.72 560.34C516.306 561.655 516.39 564.634 516.695 566.597L517.998 566.383L516.624 566.353L517.174 567.035L516.789 566.904L517.393 566.595C517.368 566.298 517.34 566 517.318 565.702C517.223 564.409 517.387 563.171 517.555 561.891C518.953 569.636 518.572 578.491 518.936 586.42Q520.319 616.254 520.988 646.113C523.404 646.761 525.876 647.376 528.179 648.366Q528.945 648.699 529.693 649.069Q530.441 649.439 531.17 649.846Q531.899 650.252 532.607 650.695Q533.315 651.137 534.001 651.614Q534.686 652.09 535.347 652.601Q536.008 653.111 536.642 653.653Q537.277 654.195 537.884 654.768Q538.491 655.341 539.069 655.943Q539.647 656.546 540.195 657.176Q540.743 657.806 541.258 658.463Q541.774 659.119 542.256 659.8Q542.739 660.482 543.187 661.186Q543.635 661.89 544.048 662.616Q544.461 663.341 544.837 664.086Q545.214 664.832 545.553 665.594Q545.892 666.357 546.193 667.136C549.534 675.626 548.943 684.181 545.225 692.464C541.602 700.537 535.232 706.416 526.938 709.485C518.861 712.474 509.888 712.374 502.036 708.721C493.74 704.862 486.745 697.063 483.725 688.425C480.877 680.279 481.81 671.631 485.527 663.933C489.904 654.871 497.272 649.646 506.587 646.375C505.954 633.214 504.913 620.086 504.392 606.908C503.701 589.421 503.545 571.697 501.451 554.319Z"/>
	<path fill="#B980EB" d="M421.35 740.192C451.269 751.728 481.721 760.185 514.162 758.254Q522.832 757.682 531.454 756.608C536.915 755.888 549.612 752.578 554.313 753.505C556.593 753.954 558.442 755.89 559.308 757.993C560.056 759.809 560.161 761.983 559.363 763.798C558.145 766.563 555.119 768.132 552.395 769.036C545.136 771.448 536.055 771.879 528.422 772.537C489.579 775.884 452.894 769.916 416.896 755.138C417.758 755.011 418.46 754.782 419.27 754.464C420.669 751.975 419.301 748.202 420.178 745.477C420.694 743.875 421.723 743.645 423.082 742.891L423.147 742.076L421.35 740.192Z"/>
	<path fill="#B980EB" d="M780.358 339.073L781.764 338.895C781.99 339.058 782.298 339.145 782.443 339.383C783.244 340.695 786.757 359.59 787.72 363.21Q776.49 365.959 765.187 368.393C764.548 368.481 764.119 368.363 763.494 368.235C761.725 365.304 759.178 349.048 758.037 344.172Q769.259 341.891 780.358 339.073Z"/>
	<path fill="#B980EB" d="M816.253 348.081C816.758 347.977 817.343 348.061 817.858 348.079C820.614 352.139 822.679 366.7 823.867 372.23Q812.922 374.636 802.108 377.576L800.839 377.691C798.715 374.653 795.758 357.244 794.783 352.878L816.253 348.081Z"/>
	<path fill="#B980EB" d="M704.193 207.041L704.52 207.076C706.583 208.632 710.713 227.457 711.711 231.265C704.003 232.019 696.199 234.451 688.707 236.345L688.36 236.347C686.042 234.026 682.656 217.27 681.548 212.994C689.15 211.286 696.687 209.129 704.193 207.041Z"/>
	<path fill="#B980EB" d="M745.526 309.663C747.946 312.164 750.743 329.154 751.717 333.494C743.991 334.768 736.303 336.512 728.612 338.007L727.807 337.969C726.02 336.588 722.869 318.452 722.135 315.02C729.962 313.396 737.721 311.397 745.526 309.663Z"/>
	<path fill="#B980EB" d="M774.794 387.56L776.143 387.579C778.64 390.09 781.459 407.538 782.367 411.75C775.029 412.929 767.816 414.878 760.633 416.755L759.589 416.745C757.538 413.439 754.526 397.395 753.414 392.858C760.562 391.204 767.673 389.329 774.794 387.56Z"/>
	<path fill="#B980EB" d="M733.017 365.617C733.264 365.762 733.57 365.837 733.759 366.052C733.935 366.253 739.235 386.696 739.857 388.96L717.146 394.337L716.356 394.361C714.263 391.89 711.594 374.365 710.862 370.306L733.017 365.617Z"/>
	<path fill="#B980EB" d="M811.386 211.631C811.989 211.516 812.404 211.589 813.006 211.667C815.273 215.755 817.351 229.077 818.76 234.678C811.518 236.935 804.033 238.567 796.667 240.38L795.652 240.285C793.538 237.289 790.943 221.544 789.936 216.879Q800.63 214.126 811.386 211.631Z"/>
	<path fill="#B980EB" d="M745.84 409.514L746.589 409.608C749.125 415.675 750.795 426.379 752.449 433.142C745.259 435.277 737.925 437.01 730.659 438.871C730.094 438.953 729.676 438.802 729.128 438.673C726.88 434.26 724.929 420.608 723.786 415.206C731.129 413.236 738.582 411.822 745.84 409.514Z"/>
	<path fill="#B980EB" d="M782.385 171.202C784.318 173.39 787.48 190.903 788.277 194.615L765.162 200.296C762.629 194.923 760.864 183.114 759.553 176.802C767.028 174.761 774.724 172.339 782.385 171.202Z"/>
	<path fill="#B980EB" d="M780.85 238.148C780.905 238.181 780.971 238.201 781.016 238.247C782.817 240.098 786.276 258.724 786.928 262.023C779.405 263.848 771.722 265.086 764.106 266.466C761.874 264.476 758.831 248.048 757.823 243.759C765.325 241.459 773.192 239.867 780.85 238.148Z"/>
	<path fill="#B980EB" d="M695.25 170.602L697.257 170.43C699.739 172.95 702.22 189.678 703.019 194.139C696.042 195.079 689.089 196.702 682.248 198.348C681.326 198.449 681.052 198.447 680.205 198.239C677.174 193.004 675.761 181.8 674.387 175.576C681.166 173.405 688.3 172.113 695.25 170.602Z"/>
	<path fill="#B980EB" d="M748.645 266.125C749.984 267.377 754.075 286.409 754.876 289.688L732.07 295.334C730.553 293.671 726.797 275.33 725.926 271.761C733.357 269.517 741.106 268.018 748.645 266.125Z"/>
	<path fill="#B980EB" d="M780.725 295.113L781.244 295.13C783.223 297.363 786.47 314.424 787.351 318.131C780.081 319.364 772.805 321.469 765.63 323.196L764.303 323.197C761.797 319.552 759.711 304.985 758.643 299.789L780.725 295.113Z"/>
	<path fill="#B980EB" d="M712.573 247.602L712.838 247.683C715.012 250.506 718.198 266.723 719.226 270.999C711.608 272.241 704.044 274.108 696.503 275.76C696.385 275.703 696.24 275.682 696.148 275.588C694.768 274.183 690.562 256.284 689.736 253.303Q701.196 250.621 712.573 247.602Z"/>
	<path fill="#B980EB" d="M740.286 205.58C741.479 205.421 741.51 205.267 742.661 205.816C745.103 212.791 746.114 220.904 747.852 228.152C740.807 230.09 733.691 231.814 726.613 233.627C726.327 233.735 725.671 233.705 725.355 233.72C723.394 230.696 720.563 215.771 719.211 210.86C726.023 208.615 733.302 207.245 740.286 205.58Z"/>
	<path fill="#B980EB" d="M813.254 272.091L814.154 272.082C816.188 274.373 819.196 291.037 819.839 294.977C812.729 296.308 805.656 298.097 798.597 299.69L797.228 299.744C794.952 296.618 792.656 280.926 792.269 276.516Q802.747 274.235 813.254 272.091Z"/>
</svg>
